<svg width="45" height="45" viewBox="0 0 45 45" fill="none" xmlns="http://www.w3.org/2000/svg">
<circle cx="22.5" cy="22.5" r="22.5" fill="#EDF7FF"/>
<path d="M6.53705 22.1589C5.79732 20.373 6.64538 18.3257 8.43123 17.5859L29.6805 8.78422C31.4663 8.04449 33.5137 8.89255 34.2534 10.6784L34.8275 12.0642C32.7865 12.9096 31.8173 15.2495 32.6627 17.2905C33.5081 19.3315 35.8479 20.3007 37.8889 19.4553L38.463 20.8411C39.2027 22.6269 38.3546 24.6743 36.5688 25.414L15.3195 34.2158C13.5337 34.9555 11.4863 34.1074 10.7466 32.3216L10.1725 30.9358C12.2135 30.0904 13.1827 27.7505 12.3373 25.7095C11.4919 23.6685 9.15205 22.6993 7.11107 23.5447L6.53705 22.1589Z" stroke="#0032A3"/>
<line x1="24.4078" y1="10.427" x2="31.6788" y2="27.9807" stroke="#0032A3" stroke-dasharray="3 3"/>
<circle cx="20.3816" cy="22.9186" r="5" transform="rotate(-22.5 20.3816 22.9186)" fill="#0BD1FF"/>
</svg>
