<svg width="45" height="45" viewBox="0 0 45 45" fill="none" xmlns="http://www.w3.org/2000/svg">
<circle cx="22.5" cy="22.5" r="22.5" fill="#EDF7FF"/>
<path d="M30.1438 13.2705C31.8483 14.1177 33.0784 15.4789 33.9984 17.6921C33.9732 19.1812 33.6543 20.0461 33.2362 20.5698C32.8117 21.1015 32.1636 21.4332 31.1702 21.6032C30.1586 21.7762 28.9114 21.7614 27.4127 21.6907C27.0568 21.6739 26.6873 21.654 26.3068 21.6335C25.1224 21.5696 23.83 21.5 22.5 21.5C21.17 21.5 19.8776 21.5696 18.6932 21.6335C18.3127 21.654 17.9432 21.6739 17.5873 21.6907C16.0886 21.7614 14.8414 21.7762 13.8298 21.6032C12.8364 21.4332 12.1883 21.1015 11.7638 20.5698C11.3442 20.0441 11.0244 19.1748 11.0013 17.6754C11.9268 15.2173 13.1547 13.8762 14.8335 13.0939C16.6287 12.2575 19.0566 12 22.5 12C25.9051 12 28.3419 12.375 30.1438 13.2705Z" stroke="#0032A3" stroke-width="2"/>
<line x1="16" y1="25.5" x2="30" y2="25.5" stroke="#0BD1FF" stroke-width="4" stroke-linecap="round"/>
<path d="M12 30.5C12 29.9477 12.4477 29.5 13 29.5H32C32.5523 29.5 33 29.9477 33 30.5C33 32.1569 31.6569 33.5 30 33.5H15C13.3431 33.5 12 32.1569 12 30.5Z" stroke="#0032A3" stroke-width="2"/>
</svg>
