<svg width="45" height="45" viewBox="0 0 45 45" fill="none" xmlns="http://www.w3.org/2000/svg">
<circle cx="22.5" cy="22.5" r="22.5" fill="#EDF7FF"/>
<path d="M10.7464 18.2634C10.3648 16.8705 10.543 15.2601 11.1804 13.9664C11.8163 12.6759 12.8734 11.761 14.2206 11.618C18.4172 11.1726 23.7693 10.7255 28.3577 10.7222C30.6536 10.7206 32.7406 10.8303 34.389 11.1015C35.2132 11.2371 35.9135 11.4108 36.4692 11.624C37.0309 11.8396 37.4067 12.0812 37.6237 12.3293C38.1889 12.9752 38.5772 14 38.8048 15.3113C39.0305 16.6118 39.0885 18.1357 39.0393 19.7232C38.941 22.8972 38.4171 26.2586 38.0085 28.4602C37.7672 29.7599 36.7665 30.7648 35.4618 31.0407C31.2258 31.9366 22.3093 33.7058 15.3599 34.3003C13.6243 34.4488 12.0202 34.5231 10.6477 34.4936C9.26674 34.4639 8.15521 34.3294 7.38643 34.0787C6.59266 33.8198 6.34186 33.5028 6.30681 33.2246C6.26417 32.8862 6.4735 32.2857 7.36351 31.3433C11.6543 26.8001 11.7648 21.9807 10.7464 18.2634Z" stroke="#0032A3"/>
<path d="M21.608 23.044H19.148L18.62 25H16.94L19.436 17.164H21.392L23.876 25H22.136L21.608 23.044ZM21.272 21.772L21.056 20.968C20.96 20.616 20.816 20.064 20.624 19.312L20.396 18.424H20.348C20.108 19.456 19.896 20.304 19.712 20.968L19.496 21.772H21.272Z" fill="#0BD1FF"/>
<path d="M26.1123 25.144C25.5843 25.144 25.1563 24.976 24.8283 24.64C24.5083 24.304 24.3483 23.88 24.3483 23.368C24.3483 22.736 24.6163 22.248 25.1523 21.904C25.6883 21.552 26.5483 21.312 27.7323 21.184C27.7083 20.544 27.3803 20.224 26.7483 20.224C26.5003 20.224 26.2483 20.272 25.9923 20.368C25.7363 20.464 25.4563 20.6 25.1523 20.776L24.5643 19.696C25.4043 19.176 26.2363 18.916 27.0603 18.916C27.8203 18.916 28.3963 19.14 28.7883 19.588C29.1803 20.028 29.3763 20.688 29.3763 21.568V25H28.0323L27.9123 24.376H27.8763C27.2843 24.888 26.6963 25.144 26.1123 25.144ZM26.6523 23.872C26.8523 23.872 27.0323 23.828 27.1923 23.74C27.3603 23.644 27.5403 23.504 27.7323 23.32V22.18C27.0843 22.268 26.6203 22.4 26.3403 22.576C26.0603 22.752 25.9203 22.972 25.9203 23.236C25.9203 23.444 25.9843 23.604 26.1123 23.716C26.2403 23.82 26.4203 23.872 26.6523 23.872Z" fill="#0032A3"/>
</svg>
