<svg width="103" height="26" viewBox="0 0 103 26" fill="none" xmlns="http://www.w3.org/2000/svg">
<path d="M7.4 7H11.36V21H7.4V7ZM17.1573 10.14H12.8573V7H25.3973V10.14H21.1173V21H17.1573V10.14ZM32.9927 17.28H30.8327V21H26.8727V7H33.2727C34.5393 7 35.6393 7.21333 36.5727 7.64C37.506 8.05333 38.226 8.65333 38.7327 9.44C39.2393 10.2133 39.4927 11.1267 39.4927 12.18C39.4927 13.1933 39.2527 14.08 38.7727 14.84C38.306 15.5867 37.6327 16.1733 36.7527 16.6L39.7727 21H35.5327L32.9927 17.28ZM35.4927 12.18C35.4927 11.5267 35.286 11.02 34.8727 10.66C34.4593 10.3 33.846 10.12 33.0327 10.12H30.8327V14.22H33.0327C33.846 14.22 34.4593 14.0467 34.8727 13.7C35.286 13.34 35.4927 12.8333 35.4927 12.18ZM51.0573 18.28H45.1373L44.0373 21H39.9973L46.1773 7H50.0773L56.2773 21H52.1573L51.0573 18.28ZM49.8973 15.36L48.0973 10.88L46.2973 15.36H49.8973ZM70.8188 7L64.8188 21H60.9188L54.9387 7H59.2188L63.0188 16.12L66.8988 7H70.8188ZM82.8783 17.94V21H71.6383V7H82.6183V10.06H75.5583V12.42H81.7783V15.38H75.5583V17.94H82.8783ZM85.0758 7H89.0358V17.86H95.7158V21H85.0758V7Z" fill="#0032A3"/>
<path d="M15 7.5C15 10.5376 12.5376 13 9.5 13C6.46243 13 4 10.5376 4 7.5C4 4.46243 6.46243 2 9.5 2C12.5376 2 15 4.46243 15 7.5Z" fill="#0032A3"/>
<path d="M13 7.5C13 9.433 11.433 11 9.5 11C7.567 11 6 9.433 6 7.5C6 5.567 7.567 4 9.5 4C11.433 4 13 5.567 13 7.5Z" fill="white"/>
</svg>
