<svg width="45" height="45" viewBox="0 0 45 45" fill="none" xmlns="http://www.w3.org/2000/svg">
<circle cx="22.5" cy="22.5" r="22.5" fill="#EDF7FF"/>
<path d="M34.153 17.3863C34.39 16.0162 34.1477 14.4826 33.5033 13.2639C32.8608 12.0487 31.8518 11.1986 30.5699 11.058C27.6121 10.7334 24.1415 10.4559 21.2269 10.5058C19.7679 10.5308 18.4682 10.6377 17.4497 10.8544C16.4004 11.0776 15.7691 11.3938 15.5021 11.7402C15.1318 12.2206 14.8633 12.9855 14.6988 13.9818C14.5362 14.967 14.4836 16.1241 14.5043 17.3414C14.5457 19.7753 14.879 22.3921 15.168 24.2397C15.3717 25.5416 16.3429 26.5705 17.6359 26.875C20.9735 27.6611 27.0845 28.9911 31.7345 29.3864C32.8949 29.4851 33.9534 29.5245 34.8487 29.4847C35.7536 29.4445 36.4505 29.3248 36.912 29.1308C37.3672 28.9395 37.4865 28.73 37.4988 28.5358C37.5153 28.2738 37.3632 27.8119 36.7635 27.0911C33.9924 23.7602 33.6575 20.2512 34.153 17.3863Z" stroke="#0032A3"/>
<path d="M10.847 20.3863C10.61 19.0162 10.8523 17.4826 11.4967 16.2639C12.1392 15.0487 13.1482 14.1986 14.4301 14.058C17.3879 13.7334 20.8585 13.4559 23.7731 13.5058C25.2321 13.5308 26.5318 13.6377 27.5503 13.8544C28.5996 14.0776 29.2309 14.3938 29.4979 14.7402C29.8682 15.2206 30.1367 15.9855 30.3012 16.9818C30.4638 17.967 30.5164 19.1241 30.4957 20.3414C30.4543 22.7753 30.121 25.3921 29.832 27.2397C29.6283 28.5416 28.6571 29.5705 27.3641 29.875C24.0265 30.6611 17.9155 31.9911 13.2655 32.3864C12.1051 32.4851 11.0466 32.5245 10.1513 32.4847C9.24644 32.4445 8.54954 32.3248 8.08797 32.1308C7.63285 31.9395 7.51346 31.73 7.5012 31.5358C7.48466 31.2738 7.63683 30.8119 8.23651 30.0911C11.0076 26.7602 11.3425 23.2512 10.847 20.3863Z" fill="#EDF7FF" stroke="#0032A3"/>
<path d="M14.456 25.052C15.288 24.26 15.92 23.636 16.352 23.18C16.792 22.724 17.144 22.288 17.408 21.872C17.672 21.456 17.804 21.072 17.804 20.72C17.804 20.344 17.704 20.052 17.504 19.844C17.304 19.628 17.024 19.52 16.664 19.52C16.408 19.52 16.168 19.592 15.944 19.736C15.72 19.88 15.496 20.072 15.272 20.312L14.372 19.424C14.756 19.016 15.14 18.716 15.524 18.524C15.916 18.324 16.372 18.224 16.892 18.224C17.636 18.224 18.236 18.444 18.692 18.884C19.148 19.316 19.376 19.896 19.376 20.624C19.376 21.216 19.156 21.832 18.716 22.472C18.276 23.104 17.644 23.848 16.82 24.704C17.284 24.648 17.712 24.62 18.104 24.62H19.748V26H14.456V25.052ZM26.2693 24.128H25.3573V26H23.8333V24.128H20.5093V23L23.3773 18.368H25.3573V22.88H26.2693V24.128ZM23.8333 22.88V21.476C23.8333 21.14 23.8533 20.584 23.8933 19.808H23.8453C23.7653 19.976 23.5933 20.32 23.3293 20.84L23.2213 21.056L22.0933 22.88H23.8333Z" fill="#0BD1FF"/>
</svg>
